<?xml version="1.0" encoding="utf-8"?>
<!-- Generator: Adobe Illustrator 23.1.0, SVG Export Plug-In . SVG Version: 6.00 Build 0)  -->
<svg version="1.1" id="Layer_1" xmlns="http://www.w3.org/2000/svg" xmlns:xlink="http://www.w3.org/1999/xlink" x="0px" y="0px"
	 viewBox="0 0 24 24" style="enable-background:new 0 0 24 24;" xml:space="preserve">
<style type="text/css">
	.st0{fill:none;}
</style>
<g>
	<rect class="st0" width="24" height="24"/>
</g>
<g>
	<g>
		<path d="M21.6,16.1l-1.1-7.7c-0.3-2-2-3.4-4-3.4H7.5c-2,0-3.7,1.5-4,3.4l-1.1,7.7c-0.2,1.5,1,2.9,2.5,2.9l0,0
			c0.7,0,1.3-0.3,1.8-0.8L9,16h6l2.3,2.3c0.5,0.5,1.1,0.8,1.8,0.8l0,0C20.6,19,21.8,17.6,21.6,16.1z M11,11H9v2H8v-2H6v-1h2V8h1v2h2
			V11z M15,10c-0.6,0-1-0.4-1-1s0.4-1,1-1s1,0.4,1,1S15.6,10,15,10z M17,13c-0.5,0-1-0.4-1-1s0.5-1,1-1s1,0.4,1,1S17.5,13,17,13z"/>
	</g>
</g>
</svg>
